<?xml version="1.0" encoding="UTF-8" standalone="no"?>
<svg width="1920" height="1080" viewBox="0 0 1920 1080" fill="none" xmlns="http://www.w3.org/2000/svg">
  <rect width="1920" height="1080" fill="#F0F2F5" />
  <path fill-rule="evenodd" clip-rule="evenodd" d="M0 0L1920 0L1920 1080L0 1080L0 0Z" fill="url(#paint0_linear)" />
  <path fill-rule="evenodd" clip-rule="evenodd" d="M1920 0L0 0L0 1080L1920 1080L1920 0Z" fill="url(#paint1_radial)" />
  <path opacity="0.3" d="M0 0L1920 0L1920 1080L0 1080L0 0Z" fill="url(#paint2_radial)" />
  <path opacity="0.2" d="M1 1H1919V1079H1V1Z" stroke="#409EFF" stroke-width="2" />
  <g opacity="0.2">
    <circle cx="200" cy="200" r="50" fill="#409EFF" />
    <circle cx="1720" cy="880" r="70" fill="#67C23A" />
    <circle cx="300" cy="800" r="40" fill="#E6A23C" />
    <circle cx="1600" cy="300" r="60" fill="#F56C6C" />
  </g>
  <g opacity="0.1">
    <path d="M0 200L1920 400" stroke="#409EFF" stroke-width="2" />
    <path d="M0 400L1920 200" stroke="#409EFF" stroke-width="2" />
    <path d="M0 800L1920 600" stroke="#67C23A" stroke-width="2" />
    <path d="M0 600L1920 800" stroke="#67C23A" stroke-width="2" />
  </g>
  <defs>
    <linearGradient id="paint0_linear" x1="960" y1="0" x2="960" y2="1080" gradientUnits="userSpaceOnUse">
      <stop stop-color="#F5F7FA" />
      <stop offset="1" stop-color="#E4E7ED" />
    </linearGradient>
    <radialGradient id="paint1_radial" cx="0" cy="0" r="1" gradientUnits="userSpaceOnUse" gradientTransform="translate(960 540) rotate(90) scale(540 960)">
      <stop stop-color="#409EFF" stop-opacity="0" />
      <stop offset="1" stop-color="#409EFF" stop-opacity="0.1" />
    </radialGradient>
    <radialGradient id="paint2_radial" cx="0" cy="0" r="1" gradientUnits="userSpaceOnUse" gradientTransform="translate(960 540) rotate(90) scale(540 960)">
      <stop stop-color="#409EFF" stop-opacity="0" />
      <stop offset="1" stop-color="#409EFF" stop-opacity="0.2" />
    </radialGradient>
  </defs>
</svg> 